<?xml version="1.0" encoding="utf-8"?>
<!-- Generator: Adobe Illustrator 16.0.0, SVG Export Plug-In . SVG Version: 6.00 Build 0)  -->
<!DOCTYPE svg PUBLIC "-//W3C//DTD SVG 1.1//EN" "http://www.w3.org/Graphics/SVG/1.1/DTD/svg11.dtd">
<svg version="1.1" id="Layer_1" xmlns="http://www.w3.org/2000/svg" xmlns:xlink="http://www.w3.org/1999/xlink" x="0px" y="0px"
	 width="100px" height="75px" viewBox="0 0 100 75" enable-background="new 0 0 100 75" xml:space="preserve">
<path fill-rule="evenodd" clip-rule="evenodd" fill="#FFFFFF" d="M102.083,37.554c-5.521-0.127-10.098-0.386-10.323-0.388
	c-4.37-0.03-11.255,1.397-15.174,0.856c-0.104-1.669,4.569-9.912,1.186-16.978c-2.164-4.519-7.03-6.888-12.39-8.48
	c-2.413-0.716-1.829-0.196-2.773-2.367c-1.638-3.763-5.078-5.434-9.39-6.3c-2.154-0.432-7.453-0.851-9.533-0.476
	c-4.525,0.815-3.376-0.646-7.508-1.909c-5.147-1.574-12.96-1.797-17.619-0.401c-2.898,0.869-4.646,1.427-7.341,2.705
	C9.926,4.427,9.128,5.037,8.033,5.78c-0.791,0.538-0.59,0.101-1.418,0.916C6.139,7.163,5.726,7.588,5.208,7.887
	c-1.606,0.921-3.584,3.964-4.229,6.248c-0.798,2.82-0.838,5.972-1.021,9.158c-0.204,3.538,1.838,13.455,3.188,16.445
	c2.881,6.384,3.968,7.4,8.462,12.069c1.741,1.81,3.804,2.854,5.326,5.032c1.585,2.269,2.955,3.334,5.461,5.02
	c1.717,1.152,4.733,3.056,6.844,3.643c0.886,0.245,1.588,2.073,2.153,2.921c0.537,0.812,1.848,2.149,2.469,2.751
	c4.724,4.564,8.869,5.063,14.948,2.243c4.518-2.096,7.15-6.587,10.457-10.193c0.647-0.704,3.716-5.237,4.223-6.231
	c1.546-3.034,1.379-4.235,3.927-6.696c1.765-1.705,3.348-3.502,4.932-5.435c0.755-0.925,1.359-2.04,2.066-3.108
	c1.396-2.105,0.227-1.982,3.084-2.063c0.998-0.028,9.87-0.007,24.116,0.05C101.666,38.983,101.826,38.245,102.083,37.554z
	 M60.282,24.39c-3.092-0.139-3.917-5.607-4.541-8.357c-0.192-0.846-0.396-1.639-0.705-2.398c-0.561-1.391-0.713-1.484,1.092-1.288
	c1.157,0.125,4.848,0.477,5.466,0.955L60.282,24.39z M62.096,28.612c0.468,0.61,1.151,2.153,1.438,2.924
	c0.416,1.117,1.688,6.011,1.357,6.88c-0.678,0.202-2.621,0.348-3.602,0.45c-1.547,0.163-2.872,0.793-2.662-1.178
	c0.374-3.495,0.945-4.102,1.829-7.277C60.756,29.328,60.8,26.925,62.096,28.612z M17.629,25.618c1.099-2.866,2.254-5.936,4.16-7.77
	c1.694-1.629,3.795-4.375,6.064-5.603c1.5-0.813,8.281,0.816,9.391,1.787c-0.235,0.431-10.101,4.784-13.548,9.61
	c-0.897,1.258-1.422,2.565-1.401,4.486c0.016,1.51-1.327,1.912-2.229,3.393c-0.76,1.25-1.521,2.098-2.246,3.646
	c-1.06,2.265-1.009,3.218-1.735-0.07C15.281,31.461,16.353,28.949,17.629,25.618z M14.907,27.738
	c-0.417,1.327-1.223,7.159-1.706,7.735c-2.916-1.709-3.154-10.47-1.763-14.226c1.824-4.919,4.291-7.232,9.518-8.598
	c4.855-1.27,1.622,0.981,0.247,2.835c-1.323,1.784-2.52,3.849-3.38,5.858C16.875,23.552,15.733,25.094,14.907,27.738z
	 M40.471,21.346c0.269-0.304,4.394-1.312,3.614,0.51c-0.544,1.269-0.456,2.449-1.394,4.287c-0.8,1.57-1.191,2.398-2.053,3.853
	c-0.259,0.438-5.925,8.199-4.638,4.349C36.521,32.781,39.725,22.187,40.471,21.346z M39.019,20.178
	c-0.504,0.257-4.953,1.57-5.459,1.699c-1.998,0.509-8.967,5.064-9.356,5.045c0.056-3.153,4.58-6.577,6.74-8.033
	c1.417-0.956,3.045-1.658,4.638-2.618c1.609-0.969,3.339-1.874,5.24-0.845C41.938,16.029,39.215,20.078,39.019,20.178z
	 M42.394,19.87c-2.265,0.209-1.047-0.732-0.064-2.722c0.336-0.681,0.261-0.767,1.079-0.503c1.205,0.388,1.639,0.765,1.306,2.037
	C44.419,19.805,44.438,19.681,42.394,19.87z M41.216,12.583c-1.224,1.41-3.712-0.112-4.859-0.242
	c-0.321-0.036-4.733-1.219-4.937-1.38C32.568,9.257,42.219,11.431,41.216,12.583z M17.984,43.685
	c0.064,0.041,3.906,4.987,4.749,5.894c1.563,1.682,4.767,3.521,5.935,4.902c0.349,3.081-0.815,4.014-3.571,2.849
	c-2.584-1.09-5.048-5.345-6.125-7.893C18.615,48.594,17.335,44.598,17.984,43.685z M19.454,34.814
	c0.347-0.717,2.513-4.057,3.16-4.132c0.214,0.081,1.286,2.218,1.431,2.471c0.866,1.513,0.758,1.093,1.916,2.165
	c0.492,0.456,4.558,3.671,4.563,3.711c-3.274,1.29-7.893,1.7-11.302,0.497C17.158,38.799,18.684,36.402,19.454,34.814z
	 M26.794,33.789c-0.713-0.849-2.762-3.649-2.374-4.868c0.317-0.988,3.395-2.677,4.264-3.261c2.625-1.763,4.84-2.486,7.574-3.533
	c0.958-0.366,2.595-1.154,2.135,0.449c-1.042,3.628-2.587,8.274-3.882,11.885c-1.004,2.798-0.697,4.252-3.474,2.532
	C29.551,36.075,27.783,34.966,26.794,33.789z M33.527,41.322c0.461-1.539,1.61-0.534,3.335-0.202
	c3.474,0.67,8.641,1.066,11.999,0.616c0.585-0.079,4.336-0.723,3.467,0.285c-3.26,3.779-6.284,5.495-9.843,8.972
	c-1.353,1.323-4.167,2.705-5.572,3.733c-1.335,0.975-6.589-0.273-6.313-2.156C31.335,47.579,32.216,45.694,33.527,41.322z
	 M39.529,54.794c3.688-2.076,10.076-8.014,13.278-11.246c0.847-0.854,1.265-1.487,1.948-2.149c0.896-0.863,2.424-0.762,1.675,1.307
	c-1.571,4.337-3.441,7.597-6.818,9.822c-1.259,0.831-3.836,2.277-5.373,2.646C43.824,55.274,36.185,56.673,39.529,54.794z
	 M56.458,36.305c-0.477,0.862-1.409,2.787-2.224,3.172c-1.155,0.545-7.396,0.732-9.23,0.804c-2.405,0.096-7.433-0.277-9.429-1.141
	c-1.526-0.661,0.926-1.906,1.547-2.574c0.922-0.991,1.735-1.79,2.576-2.792c1.951-2.325,2.725-3.828,4.128-6.565
	c2.747-5.357,0.566-6.961,4.117-6.214c1.074,0.225,0.661,0.985,1.75,0.744c1.206-0.266,0.755-0.186,1.99,0.177
	c1.202,0.354,2.177,1.72,2.747,2.612c1.396,2.175,0.672,1.507,1.49,3.66c0.45,1.188,1.298,2.503,0.999,3.998
	C56.442,34.556,57.69,34.082,56.458,36.305z M45.715,13.349c-0.185-0.905,2.909-0.995,3.702-1.027
	c1.893-0.077,3.207-0.404,3.98,0.86c0.594,0.97,1.093,2.268,1.309,3.46c0.34,1.871,1.045,2.63,1.185,3.727
	c0.304,2.408-1.969,0.958-2.663,0.373c-0.943-0.792-2.053-1.331-3-2.051C50.04,18.55,45.735,13.438,45.715,13.349z M43.715,4.652
	c1.138-0.061,2.109-0.12,3.252-0.089c3.952,0.107,8.177,0.823,11.427,2.858c0.745,0.467,3.485,3.048,2.73,4.02
	c-0.025,0.012-5.295-0.39-6.043-0.458c-2.717-0.251-2.58-1.638-5.653-1.508c-1.807,0.077-4.1,2.326-4.583,1.089
	c-0.704-1.806-1.114-3.085-2.27-4.681C41.689,4.661,42.197,4.734,43.715,4.652z M42.964,8.801c2.267,5.946-1.187,1.356-4.662,0.778
	c-1.753-0.291-3.654-0.461-5.482-0.282c-0.971,0.095-3.993,1.426-4.449,1.04c0.798-1.333,5.758-3.531,7.516-4.118
	C39.662,4.959,41.43,4.773,42.964,8.801z M7.295,44.435c-2.215-2.63-3.22-7.357-4.008-8.96c-0.96-1.949-1.569-7.979-1.78-10.571
	c-0.329-4.055-0.031-7.414,1.12-11.321c1.723-5.85,9.307-9.668,14.845-11.052c3.758-0.938,6.278-1.434,10.717-0.904
	c2.312,0.276,8.89,0.511,10.352,2.391c-0.129,0.188-6.152,2.345-7.174,3.003c-0.661,0.426-6.222,3.736-6.586,3.787
	c-6.526,0.936-9.581,1.687-13.35,6.932c-2.994,4.167-3.072,12.547-0.996,16.864c2.11,4.386,2.741,0.772,2.096,7.537
	c-0.337,3.547,1.318,7.02,1.226,9.002C12.329,50.818,8.193,45.5,7.295,44.435z M15.142,49.654c-0.498-1.674-1.614-8.551-0.805-9.993
	c0.428-0.761,1.632,0.201,1.788,0.602c0.268,0.685-0.508,3.691,0.689,7.883c0.473,1.656,1,2.701,1.628,4.159
	c0.515,1.189,2.067,2.903,2.284,3.621C17.709,55.387,16.01,52.572,15.142,49.654z M28.943,63.801l-8.618-5.538
	c1.056-0.61,4.578,1.245,5.239,1.563c2.435,1.167,3.032,0.593,3.575,3.659L28.943,63.801z M27.842,51.874
	c-2.476-1.847-8.609-8.133-9.354-10.754c3.784,0.062,4.969,1.528,11.399-0.154c3.12-0.816,2.695-1.775,1.675,1.993
	c-0.48,1.78-1.185,3.434-1.618,5.447C28.889,53.316,29.19,52.879,27.842,51.874z M33.671,57.949
	c2.037-0.707,1.668-1.299,4.322-0.983c4.653,0.556,8.173-1.444,9.29-1.328c-0.742,1.688-5.224,3.608-7.063,4.295
	c-1.612,0.604-8.251,1.305-9.724-0.068C29.448,58.89,32.81,58.249,33.671,57.949z M60.436,58.981
	c-1.713,2.236-3.245,5.083-5.34,7.022c-1.709,1.58-4.082,4.635-6.43,5.797c-3.141,1.554-5.574,2.299-9.583,0.792
	c-1.593-0.599-6.466-4.634-6.454-6.015c9.18,0.304,11.977-1.544,18.728-4.688c2.411-1.123,5.193-3.156,7.456-4.632
	c0.497-0.326,3.319-2.465,3.571-2.306C62.997,55.335,60.744,58.58,60.436,58.981z M64.896,47.43
	c-0.514,3.611-0.382,3.415-2.765,5.346c-5.156,4.181-13.91,9.296-20.168,11.318c-1.912,0.616-4.304,0.883-6.685,0.813
	c-2.222-0.066-4.786-0.146-4.661-3.132c5.522,0.002,6.871,1.12,12.056-1.121c2.727-1.178,6.151-4.141,8.133-6.167
	c2.572-2.633,4.361-4.88,6.103-8.453c0.45-0.927,1.427-5.158,1.783-5.387c0.363-0.234,5.668-0.604,6.296-0.523
	C65.435,41.387,65.092,46.057,64.896,47.43z M73.283,40.552c-0.241,0.562-0.83,1.486-1.15,1.878
	c-1.94,2.372-3.434,4.766-5.649,6.352l0.188-8.726c0.647-0.291,4.015-0.318,5.02-0.322C72.662,39.729,73.801,39.347,73.283,40.552z
	 M73.151,38.139c-8.257,0.189-6.497,0.941-7.163-1.973c-0.446-1.955-0.77-5.77-2.188-7.797c-0.344-0.49-2.218-2.698-2.238-2.805
	c-0.046-0.265,1.227-7.821,1.361-9.188c0.249-2.498-0.315-3.191,2.051-2.464c1.361,0.418,2.576,0.814,3.894,1.343
	c4.454,1.786,8.994,6.093,8.503,11.664c-0.273,3.107-0.569,6.142-1.675,8.662C74.988,37.19,75.271,38.093,73.151,38.139z"/>
</svg>
